<mxfile host="app.diagrams.net" modified="2020-10-11T13:57:56.678Z" agent="5.0 (Windows NT 10.0; Win64; x64) AppleWebKit/537.36 (KHTML, like Gecko) Chrome/85.0.4183.121 Safari/537.36 Edg/85.0.564.68" etag="aMQG6j-nbWex3qlv_lLq" version="13.7.9" type="github" pages="4">
  <diagram id="FbVVVeUaJscKcd3VuqbA" name="address">
    <mxGraphModel dx="976" dy="588" grid="1" gridSize="10" guides="1" tooltips="1" connect="1" arrows="1" fold="1" page="1" pageScale="1" pageWidth="827" pageHeight="1169" math="0" shadow="0">
      <root>
        <mxCell id="O2GBhiFO_LnKKNROq6-S-0" />
        <mxCell id="O2GBhiFO_LnKKNROq6-S-1" parent="O2GBhiFO_LnKKNROq6-S-0" />
        <mxCell id="LCOVRRSoVxE-Z14ZQxnW-18" value="" style="rounded=0;whiteSpace=wrap;html=1;fillColor=#f8cecc;strokeColor=#b85450;sketch=1;" parent="O2GBhiFO_LnKKNROq6-S-1" vertex="1">
          <mxGeometry x="330" y="150" width="120" height="240" as="geometry" />
        </mxCell>
        <mxCell id="LCOVRRSoVxE-Z14ZQxnW-17" value="" style="group;sketch=1;fillColor=#ffffff;" parent="O2GBhiFO_LnKKNROq6-S-1" vertex="1" connectable="0">
          <mxGeometry x="330" y="210" width="120" height="120" as="geometry" />
        </mxCell>
        <mxCell id="LCOVRRSoVxE-Z14ZQxnW-15" value="list_head *Next" style="rounded=0;whiteSpace=wrap;html=1;fillColor=#dae8fc;strokeColor=#6c8ebf;sketch=1;" parent="LCOVRRSoVxE-Z14ZQxnW-17" vertex="1">
          <mxGeometry width="120" height="60" as="geometry" />
        </mxCell>
        <mxCell id="LCOVRRSoVxE-Z14ZQxnW-16" value="list_head *Prev" style="rounded=0;whiteSpace=wrap;html=1;fillColor=#dae8fc;strokeColor=#6c8ebf;sketch=1;" parent="LCOVRRSoVxE-Z14ZQxnW-17" vertex="1">
          <mxGeometry y="60" width="120" height="60" as="geometry" />
        </mxCell>
        <mxCell id="LCOVRRSoVxE-Z14ZQxnW-19" value="String" style="rounded=0;whiteSpace=wrap;html=1;fillColor=#f8cecc;strokeColor=#b85450;sketch=1;" parent="O2GBhiFO_LnKKNROq6-S-1" vertex="1">
          <mxGeometry x="330" y="150" width="120" height="60" as="geometry" />
        </mxCell>
        <mxCell id="LCOVRRSoVxE-Z14ZQxnW-21" value="```" style="rounded=0;whiteSpace=wrap;html=1;fillColor=#f8cecc;strokeColor=#b85450;sketch=1;" parent="O2GBhiFO_LnKKNROq6-S-1" vertex="1">
          <mxGeometry x="330" y="330" width="120" height="60" as="geometry" />
        </mxCell>
        <mxCell id="LCOVRRSoVxE-Z14ZQxnW-22" value="" style="endArrow=open;html=1;endFill=0;exitX=1;exitY=0.5;exitDx=0;exitDy=0;sketch=1;" parent="O2GBhiFO_LnKKNROq6-S-1" source="LCOVRRSoVxE-Z14ZQxnW-28" edge="1">
          <mxGeometry width="50" height="50" relative="1" as="geometry">
            <mxPoint x="220" y="209.31" as="sourcePoint" />
            <mxPoint x="320" y="209.31" as="targetPoint" />
          </mxGeometry>
        </mxCell>
        <mxCell id="LCOVRRSoVxE-Z14ZQxnW-23" value="0x200" style="text;html=1;align=center;verticalAlign=middle;resizable=0;points=[];autosize=1;sketch=1;" parent="O2GBhiFO_LnKKNROq6-S-1" vertex="1">
          <mxGeometry x="250" y="210" width="50" height="20" as="geometry" />
        </mxCell>
        <mxCell id="LCOVRRSoVxE-Z14ZQxnW-24" value="Structure" style="text;html=1;align=center;verticalAlign=middle;resizable=0;points=[];autosize=1;sketch=1;" parent="O2GBhiFO_LnKKNROq6-S-1" vertex="1">
          <mxGeometry x="320" y="130" width="60" height="20" as="geometry" />
        </mxCell>
        <mxCell id="LCOVRRSoVxE-Z14ZQxnW-25" value="" style="endArrow=open;html=1;endFill=0;sketch=1;" parent="O2GBhiFO_LnKKNROq6-S-1" edge="1">
          <mxGeometry width="50" height="50" relative="1" as="geometry">
            <mxPoint x="220" y="149.30999999999995" as="sourcePoint" />
            <mxPoint x="320" y="149.30999999999995" as="targetPoint" />
          </mxGeometry>
        </mxCell>
        <mxCell id="LCOVRRSoVxE-Z14ZQxnW-26" value="?" style="text;html=1;align=center;verticalAlign=middle;resizable=0;points=[];autosize=1;sketch=1;" parent="O2GBhiFO_LnKKNROq6-S-1" vertex="1">
          <mxGeometry x="265" y="150" width="20" height="20" as="geometry" />
        </mxCell>
        <mxCell id="LCOVRRSoVxE-Z14ZQxnW-27" value="" style="group;sketch=1;" parent="O2GBhiFO_LnKKNROq6-S-1" vertex="1" connectable="0">
          <mxGeometry x="80" y="180" width="120" height="120" as="geometry" />
        </mxCell>
        <mxCell id="LCOVRRSoVxE-Z14ZQxnW-28" value="Next : 0x200" style="rounded=0;whiteSpace=wrap;html=1;fillColor=#dae8fc;strokeColor=#6c8ebf;sketch=1;" parent="LCOVRRSoVxE-Z14ZQxnW-27" vertex="1">
          <mxGeometry width="120" height="60" as="geometry" />
        </mxCell>
        <mxCell id="LCOVRRSoVxE-Z14ZQxnW-29" value="Prev" style="rounded=0;whiteSpace=wrap;html=1;fillColor=#dae8fc;strokeColor=#6c8ebf;sketch=1;" parent="LCOVRRSoVxE-Z14ZQxnW-27" vertex="1">
          <mxGeometry y="60" width="120" height="60" as="geometry" />
        </mxCell>
        <mxCell id="LCOVRRSoVxE-Z14ZQxnW-30" value="list_head" style="text;html=1;align=center;verticalAlign=middle;resizable=0;points=[];autosize=1;sketch=1;" parent="O2GBhiFO_LnKKNROq6-S-1" vertex="1">
          <mxGeometry x="70" y="160" width="60" height="20" as="geometry" />
        </mxCell>
        <mxCell id="LCOVRRSoVxE-Z14ZQxnW-33" value="(unsigned long)(&amp;amp;((struct Structure*)0)-&amp;gt;list)" style="text;html=1;align=center;verticalAlign=middle;resizable=0;points=[];autosize=1;sketch=1;" parent="O2GBhiFO_LnKKNROq6-S-1" vertex="1">
          <mxGeometry x="480" y="170" width="250" height="20" as="geometry" />
        </mxCell>
        <mxCell id="LCOVRRSoVxE-Z14ZQxnW-39" value="" style="endArrow=open;startArrow=open;html=1;endFill=0;startFill=0;sketch=1;" parent="O2GBhiFO_LnKKNROq6-S-1" edge="1">
          <mxGeometry width="50" height="50" relative="1" as="geometry">
            <mxPoint x="480" y="210" as="sourcePoint" />
            <mxPoint x="480" y="150" as="targetPoint" />
          </mxGeometry>
        </mxCell>
        <mxCell id="LCOVRRSoVxE-Z14ZQxnW-40" value="" style="endArrow=none;dashed=1;html=1;dashPattern=1 3;strokeWidth=2;sketch=1;" parent="O2GBhiFO_LnKKNROq6-S-1" edge="1">
          <mxGeometry width="50" height="50" relative="1" as="geometry">
            <mxPoint x="450" y="150" as="sourcePoint" />
            <mxPoint x="530" y="150" as="targetPoint" />
          </mxGeometry>
        </mxCell>
        <mxCell id="LCOVRRSoVxE-Z14ZQxnW-41" value="" style="endArrow=none;dashed=1;html=1;dashPattern=1 3;strokeWidth=2;sketch=1;" parent="O2GBhiFO_LnKKNROq6-S-1" edge="1">
          <mxGeometry width="50" height="50" relative="1" as="geometry">
            <mxPoint x="450" y="210" as="sourcePoint" />
            <mxPoint x="530" y="210" as="targetPoint" />
          </mxGeometry>
        </mxCell>
      </root>
    </mxGraphModel>
  </diagram>
  <diagram id="Qz3xWiVXXOjZrh3WaN4e" name="address-convert">
    <mxGraphModel dx="962" dy="571" grid="1" gridSize="10" guides="1" tooltips="1" connect="1" arrows="1" fold="1" page="1" pageScale="1" pageWidth="827" pageHeight="1169" math="0" shadow="0">
      <root>
        <mxCell id="3dV0_Qt8FGwHEw2YKQJY-0" />
        <mxCell id="3dV0_Qt8FGwHEw2YKQJY-1" parent="3dV0_Qt8FGwHEw2YKQJY-0" />
        <mxCell id="3dV0_Qt8FGwHEw2YKQJY-7" value="虚拟地址" style="edgeStyle=orthogonalEdgeStyle;rounded=0;orthogonalLoop=1;jettySize=auto;html=1;exitX=1;exitY=0.5;exitDx=0;exitDy=0;entryX=0;entryY=0.5;entryDx=0;entryDy=0;startArrow=none;startFill=0;endArrow=open;endFill=0;" parent="3dV0_Qt8FGwHEw2YKQJY-1" target="3dV0_Qt8FGwHEw2YKQJY-3" edge="1">
          <mxGeometry relative="1" as="geometry">
            <mxPoint x="283" y="334.4999999999999" as="sourcePoint" />
          </mxGeometry>
        </mxCell>
        <mxCell id="3dV0_Qt8FGwHEw2YKQJY-8" value="物理地址" style="edgeStyle=orthogonalEdgeStyle;rounded=0;orthogonalLoop=1;jettySize=auto;html=1;exitX=1;exitY=0.5;exitDx=0;exitDy=0;startArrow=none;startFill=0;endArrow=open;endFill=0;entryX=0;entryY=0.5;entryDx=0;entryDy=0;" parent="3dV0_Qt8FGwHEw2YKQJY-1" source="3dV0_Qt8FGwHEw2YKQJY-3" target="3dV0_Qt8FGwHEw2YKQJY-46" edge="1">
          <mxGeometry relative="1" as="geometry">
            <mxPoint x="617" y="334.5" as="targetPoint" />
          </mxGeometry>
        </mxCell>
        <mxCell id="3dV0_Qt8FGwHEw2YKQJY-3" value="MMU" style="rounded=0;whiteSpace=wrap;html=1;sketch=1;fillColor=#ffffff;" parent="3dV0_Qt8FGwHEw2YKQJY-1" vertex="1">
          <mxGeometry x="357" y="310.5" width="126" height="48" as="geometry" />
        </mxCell>
        <mxCell id="3dV0_Qt8FGwHEw2YKQJY-22" value="相加" style="edgeStyle=orthogonalEdgeStyle;rounded=0;orthogonalLoop=1;jettySize=auto;html=1;exitX=0.5;exitY=1;exitDx=0;exitDy=0;entryX=0.5;entryY=0;entryDx=0;entryDy=0;startArrow=open;startFill=0;endArrow=open;endFill=0;" parent="3dV0_Qt8FGwHEw2YKQJY-1" source="3dV0_Qt8FGwHEw2YKQJY-9" target="3dV0_Qt8FGwHEw2YKQJY-16" edge="1">
          <mxGeometry relative="1" as="geometry" />
        </mxCell>
        <mxCell id="3dV0_Qt8FGwHEw2YKQJY-9" value="" style="rounded=0;whiteSpace=wrap;html=1;fillColor=#f8cecc;sketch=1;strokeColor=#b85450;" parent="3dV0_Qt8FGwHEw2YKQJY-1" vertex="1">
          <mxGeometry x="133" y="500" width="517" height="60" as="geometry" />
        </mxCell>
        <mxCell id="3dV0_Qt8FGwHEw2YKQJY-10" value="数据段寄存器" style="text;html=1;align=center;verticalAlign=middle;resizable=0;points=[];autosize=1;" parent="3dV0_Qt8FGwHEw2YKQJY-1" vertex="1">
          <mxGeometry x="25" y="520" width="90" height="20" as="geometry" />
        </mxCell>
        <mxCell id="3dV0_Qt8FGwHEw2YKQJY-11" value="" style="rounded=0;whiteSpace=wrap;html=1;fillColor=#f5f5f5;sketch=1;strokeColor=#666666;fontColor=#333333;" parent="3dV0_Qt8FGwHEw2YKQJY-1" vertex="1">
          <mxGeometry x="650" y="500" width="120" height="60" as="geometry" />
        </mxCell>
        <mxCell id="3dV0_Qt8FGwHEw2YKQJY-12" value="3" style="text;html=1;align=center;verticalAlign=middle;resizable=0;points=[];autosize=1;" parent="3dV0_Qt8FGwHEw2YKQJY-1" vertex="1">
          <mxGeometry x="650" y="480" width="20" height="20" as="geometry" />
        </mxCell>
        <mxCell id="3dV0_Qt8FGwHEw2YKQJY-13" value="0" style="text;html=1;align=center;verticalAlign=middle;resizable=0;points=[];autosize=1;" parent="3dV0_Qt8FGwHEw2YKQJY-1" vertex="1">
          <mxGeometry x="750" y="480" width="20" height="20" as="geometry" />
        </mxCell>
        <mxCell id="3dV0_Qt8FGwHEw2YKQJY-14" value="15" style="text;html=1;align=center;verticalAlign=middle;resizable=0;points=[];autosize=1;" parent="3dV0_Qt8FGwHEw2YKQJY-1" vertex="1">
          <mxGeometry x="130" y="480" width="30" height="20" as="geometry" />
        </mxCell>
        <mxCell id="3dV0_Qt8FGwHEw2YKQJY-15" value="数据段" style="rounded=0;whiteSpace=wrap;html=1;sketch=1;fillColor=#ffffff;" parent="3dV0_Qt8FGwHEw2YKQJY-1" vertex="1">
          <mxGeometry x="575" y="740" width="120" height="220" as="geometry" />
        </mxCell>
        <mxCell id="3dV0_Qt8FGwHEw2YKQJY-34" style="edgeStyle=orthogonalEdgeStyle;rounded=0;orthogonalLoop=1;jettySize=auto;html=1;exitX=0.5;exitY=1;exitDx=0;exitDy=0;entryX=-0.04;entryY=0.45;entryDx=0;entryDy=0;entryPerimeter=0;startArrow=none;startFill=0;endArrow=open;endFill=0;" parent="3dV0_Qt8FGwHEw2YKQJY-1" source="3dV0_Qt8FGwHEw2YKQJY-16" target="3dV0_Qt8FGwHEw2YKQJY-30" edge="1">
          <mxGeometry relative="1" as="geometry">
            <Array as="points">
              <mxPoint x="392" y="789" />
            </Array>
          </mxGeometry>
        </mxCell>
        <mxCell id="3dV0_Qt8FGwHEw2YKQJY-16" value="" style="rounded=0;whiteSpace=wrap;html=1;fillColor=#f8cecc;sketch=1;strokeColor=#b85450;" parent="3dV0_Qt8FGwHEw2YKQJY-1" vertex="1">
          <mxGeometry x="133" y="605" width="517" height="60" as="geometry" />
        </mxCell>
        <mxCell id="3dV0_Qt8FGwHEw2YKQJY-17" value="" style="rounded=0;whiteSpace=wrap;html=1;sketch=1;fillColor=#f8cecc;strokeColor=#b85450;" parent="3dV0_Qt8FGwHEw2YKQJY-1" vertex="1">
          <mxGeometry x="650" y="605" width="120" height="60" as="geometry" />
        </mxCell>
        <mxCell id="3dV0_Qt8FGwHEw2YKQJY-18" value="3" style="text;html=1;align=center;verticalAlign=middle;resizable=0;points=[];autosize=1;" parent="3dV0_Qt8FGwHEw2YKQJY-1" vertex="1">
          <mxGeometry x="650" y="585" width="20" height="20" as="geometry" />
        </mxCell>
        <mxCell id="3dV0_Qt8FGwHEw2YKQJY-19" value="0" style="text;html=1;align=center;verticalAlign=middle;resizable=0;points=[];autosize=1;" parent="3dV0_Qt8FGwHEw2YKQJY-1" vertex="1">
          <mxGeometry x="750" y="585" width="20" height="20" as="geometry" />
        </mxCell>
        <mxCell id="3dV0_Qt8FGwHEw2YKQJY-20" value="15" style="text;html=1;align=center;verticalAlign=middle;resizable=0;points=[];autosize=1;" parent="3dV0_Qt8FGwHEw2YKQJY-1" vertex="1">
          <mxGeometry x="130" y="585" width="30" height="20" as="geometry" />
        </mxCell>
        <mxCell id="3dV0_Qt8FGwHEw2YKQJY-21" value="虚拟地址" style="text;html=1;align=center;verticalAlign=middle;resizable=0;points=[];autosize=1;" parent="3dV0_Qt8FGwHEw2YKQJY-1" vertex="1">
          <mxGeometry x="40" y="625" width="60" height="20" as="geometry" />
        </mxCell>
        <mxCell id="3dV0_Qt8FGwHEw2YKQJY-28" value="0x0101" style="text;html=1;align=center;verticalAlign=middle;resizable=0;points=[];autosize=1;" parent="3dV0_Qt8FGwHEw2YKQJY-1" vertex="1">
          <mxGeometry x="770" y="625" width="50" height="20" as="geometry" />
        </mxCell>
        <mxCell id="3dV0_Qt8FGwHEw2YKQJY-29" value="0x1005" style="text;html=1;align=center;verticalAlign=middle;resizable=0;points=[];autosize=1;" parent="3dV0_Qt8FGwHEw2YKQJY-1" vertex="1">
          <mxGeometry x="770" y="520" width="50" height="20" as="geometry" />
        </mxCell>
        <mxCell id="3dV0_Qt8FGwHEw2YKQJY-30" value="0x1101" style="text;html=1;align=center;verticalAlign=middle;resizable=0;points=[];autosize=1;" parent="3dV0_Qt8FGwHEw2YKQJY-1" vertex="1">
          <mxGeometry x="465" y="780" width="50" height="20" as="geometry" />
        </mxCell>
        <mxCell id="3dV0_Qt8FGwHEw2YKQJY-31" value="" style="endArrow=open;html=1;endFill=0;" parent="3dV0_Qt8FGwHEw2YKQJY-1" edge="1">
          <mxGeometry width="50" height="50" relative="1" as="geometry">
            <mxPoint x="515" y="795" as="sourcePoint" />
            <mxPoint x="565" y="795" as="targetPoint" />
          </mxGeometry>
        </mxCell>
        <mxCell id="3dV0_Qt8FGwHEw2YKQJY-32" value="" style="endArrow=open;html=1;endFill=0;" parent="3dV0_Qt8FGwHEw2YKQJY-1" edge="1">
          <mxGeometry width="50" height="50" relative="1" as="geometry">
            <mxPoint x="515" y="740" as="sourcePoint" />
            <mxPoint x="565" y="740" as="targetPoint" />
          </mxGeometry>
        </mxCell>
        <mxCell id="3dV0_Qt8FGwHEw2YKQJY-33" value="0x0000" style="text;html=1;align=center;verticalAlign=middle;resizable=0;points=[];autosize=1;" parent="3dV0_Qt8FGwHEw2YKQJY-1" vertex="1">
          <mxGeometry x="465" y="730" width="50" height="20" as="geometry" />
        </mxCell>
        <mxCell id="3dV0_Qt8FGwHEw2YKQJY-35" value="物理地址" style="text;html=1;align=center;verticalAlign=middle;resizable=0;points=[];autosize=1;" parent="3dV0_Qt8FGwHEw2YKQJY-1" vertex="1">
          <mxGeometry x="40" y="780" width="60" height="20" as="geometry" />
        </mxCell>
        <mxCell id="3dV0_Qt8FGwHEw2YKQJY-37" value="" style="endArrow=none;dashed=1;html=1;dashPattern=1 3;strokeWidth=2;" parent="3dV0_Qt8FGwHEw2YKQJY-1" edge="1">
          <mxGeometry width="50" height="50" relative="1" as="geometry">
            <mxPoint x="34" y="460" as="sourcePoint" />
            <mxPoint x="794" y="460" as="targetPoint" />
          </mxGeometry>
        </mxCell>
        <mxCell id="3dV0_Qt8FGwHEw2YKQJY-39" value="" style="endArrow=none;dashed=1;html=1;dashPattern=1 3;strokeWidth=2;" parent="3dV0_Qt8FGwHEw2YKQJY-1" edge="1">
          <mxGeometry width="50" height="50" relative="1" as="geometry">
            <mxPoint x="46" y="1000" as="sourcePoint" />
            <mxPoint x="781" y="1000" as="targetPoint" />
          </mxGeometry>
        </mxCell>
        <mxCell id="3dV0_Qt8FGwHEw2YKQJY-40" value="" style="rounded=0;whiteSpace=wrap;html=1;sketch=1;fillColor=#ffffff;" parent="3dV0_Qt8FGwHEw2YKQJY-1" vertex="1">
          <mxGeometry x="260" y="1050" width="490" height="60" as="geometry" />
        </mxCell>
        <mxCell id="3dV0_Qt8FGwHEw2YKQJY-41" value="0" style="text;html=1;align=center;verticalAlign=middle;resizable=0;points=[];autosize=1;" parent="3dV0_Qt8FGwHEw2YKQJY-1" vertex="1">
          <mxGeometry x="735" y="1030" width="20" height="20" as="geometry" />
        </mxCell>
        <mxCell id="3dV0_Qt8FGwHEw2YKQJY-42" value="31" style="text;html=1;align=center;verticalAlign=middle;resizable=0;points=[];autosize=1;" parent="3dV0_Qt8FGwHEw2YKQJY-1" vertex="1">
          <mxGeometry x="250" y="1030" width="30" height="20" as="geometry" />
        </mxCell>
        <mxCell id="3dV0_Qt8FGwHEw2YKQJY-56" style="edgeStyle=orthogonalEdgeStyle;rounded=0;orthogonalLoop=1;jettySize=auto;html=1;exitX=0.5;exitY=1;exitDx=0;exitDy=0;entryX=1;entryY=0.25;entryDx=0;entryDy=0;startArrow=none;startFill=0;endArrow=open;endFill=0;" parent="3dV0_Qt8FGwHEw2YKQJY-1" source="3dV0_Qt8FGwHEw2YKQJY-43" target="3dV0_Qt8FGwHEw2YKQJY-57" edge="1">
          <mxGeometry relative="1" as="geometry" />
        </mxCell>
        <mxCell id="3dV0_Qt8FGwHEw2YKQJY-43" value="PGD" style="rounded=0;whiteSpace=wrap;html=1;sketch=1;fillColor=#ffffff;" parent="3dV0_Qt8FGwHEw2YKQJY-1" vertex="1">
          <mxGeometry x="260" y="1050" width="170" height="60" as="geometry" />
        </mxCell>
        <mxCell id="3dV0_Qt8FGwHEw2YKQJY-44" value="线性地址" style="text;html=1;align=center;verticalAlign=middle;resizable=0;points=[];autosize=1;" parent="3dV0_Qt8FGwHEw2YKQJY-1" vertex="1">
          <mxGeometry x="45" y="1000" width="60" height="20" as="geometry" />
        </mxCell>
        <mxCell id="3dV0_Qt8FGwHEw2YKQJY-45" value="CPU" style="rounded=0;whiteSpace=wrap;html=1;sketch=1;fillColor=#ffffff;" parent="3dV0_Qt8FGwHEw2YKQJY-1" vertex="1">
          <mxGeometry x="160" y="310" width="126" height="48" as="geometry" />
        </mxCell>
        <mxCell id="3dV0_Qt8FGwHEw2YKQJY-46" value="Memory" style="rounded=0;whiteSpace=wrap;html=1;sketch=1;fillColor=#ffffff;" parent="3dV0_Qt8FGwHEw2YKQJY-1" vertex="1">
          <mxGeometry x="571" y="310" width="126" height="48" as="geometry" />
        </mxCell>
        <mxCell id="3dV0_Qt8FGwHEw2YKQJY-47" value="22" style="text;html=1;align=center;verticalAlign=middle;resizable=0;points=[];autosize=1;" parent="3dV0_Qt8FGwHEw2YKQJY-1" vertex="1">
          <mxGeometry x="400" y="1030" width="30" height="20" as="geometry" />
        </mxCell>
        <mxCell id="3dV0_Qt8FGwHEw2YKQJY-62" style="edgeStyle=orthogonalEdgeStyle;rounded=0;orthogonalLoop=1;jettySize=auto;html=1;exitX=0.5;exitY=1;exitDx=0;exitDy=0;entryX=0.999;entryY=0.224;entryDx=0;entryDy=0;startArrow=none;startFill=0;endArrow=open;endFill=0;entryPerimeter=0;" parent="3dV0_Qt8FGwHEw2YKQJY-1" source="3dV0_Qt8FGwHEw2YKQJY-48" target="3dV0_Qt8FGwHEw2YKQJY-59" edge="1">
          <mxGeometry relative="1" as="geometry" />
        </mxCell>
        <mxCell id="3dV0_Qt8FGwHEw2YKQJY-48" value="PT" style="rounded=0;whiteSpace=wrap;html=1;sketch=1;fillColor=#ffffff;" parent="3dV0_Qt8FGwHEw2YKQJY-1" vertex="1">
          <mxGeometry x="430" y="1050" width="170" height="60" as="geometry" />
        </mxCell>
        <mxCell id="3dV0_Qt8FGwHEw2YKQJY-50" value="21" style="text;html=1;align=center;verticalAlign=middle;resizable=0;points=[];autosize=1;" parent="3dV0_Qt8FGwHEw2YKQJY-1" vertex="1">
          <mxGeometry x="425" y="1030" width="30" height="20" as="geometry" />
        </mxCell>
        <mxCell id="3dV0_Qt8FGwHEw2YKQJY-51" value="12" style="text;html=1;align=center;verticalAlign=middle;resizable=0;points=[];autosize=1;" parent="3dV0_Qt8FGwHEw2YKQJY-1" vertex="1">
          <mxGeometry x="570" y="1030" width="30" height="20" as="geometry" />
        </mxCell>
        <mxCell id="3dV0_Qt8FGwHEw2YKQJY-52" value="11" style="text;html=1;align=center;verticalAlign=middle;resizable=0;points=[];autosize=1;" parent="3dV0_Qt8FGwHEw2YKQJY-1" vertex="1">
          <mxGeometry x="595" y="1030" width="30" height="20" as="geometry" />
        </mxCell>
        <mxCell id="3dV0_Qt8FGwHEw2YKQJY-87" style="edgeStyle=orthogonalEdgeStyle;rounded=0;orthogonalLoop=1;jettySize=auto;html=1;exitX=0.5;exitY=1;exitDx=0;exitDy=0;entryX=1;entryY=0.25;entryDx=0;entryDy=0;startArrow=none;startFill=0;endArrow=open;endFill=0;" parent="3dV0_Qt8FGwHEw2YKQJY-1" source="3dV0_Qt8FGwHEw2YKQJY-53" target="3dV0_Qt8FGwHEw2YKQJY-65" edge="1">
          <mxGeometry relative="1" as="geometry" />
        </mxCell>
        <mxCell id="3dV0_Qt8FGwHEw2YKQJY-53" value="偏移量" style="rounded=0;whiteSpace=wrap;html=1;sketch=1;fillColor=#ffffff;" parent="3dV0_Qt8FGwHEw2YKQJY-1" vertex="1">
          <mxGeometry x="600" y="1050" width="150" height="60" as="geometry" />
        </mxCell>
        <mxCell id="3dV0_Qt8FGwHEw2YKQJY-54" value="" style="rounded=0;whiteSpace=wrap;html=1;sketch=1;fillColor=#ffffff;" parent="3dV0_Qt8FGwHEw2YKQJY-1" vertex="1">
          <mxGeometry x="230" y="1189" width="95" height="190" as="geometry" />
        </mxCell>
        <mxCell id="3dV0_Qt8FGwHEw2YKQJY-55" value="PGD" style="text;html=1;align=center;verticalAlign=middle;resizable=0;points=[];autosize=1;" parent="3dV0_Qt8FGwHEw2YKQJY-1" vertex="1">
          <mxGeometry x="257.5" y="1168" width="40" height="20" as="geometry" />
        </mxCell>
        <mxCell id="3dV0_Qt8FGwHEw2YKQJY-58" style="edgeStyle=orthogonalEdgeStyle;rounded=0;orthogonalLoop=1;jettySize=auto;html=1;exitX=1;exitY=0.5;exitDx=0;exitDy=0;startArrow=none;startFill=0;endArrow=open;endFill=0;entryX=0;entryY=0;entryDx=0;entryDy=0;" parent="3dV0_Qt8FGwHEw2YKQJY-1" source="3dV0_Qt8FGwHEw2YKQJY-57" target="3dV0_Qt8FGwHEw2YKQJY-59" edge="1">
          <mxGeometry relative="1" as="geometry">
            <mxPoint x="410" y="1310" as="targetPoint" />
            <Array as="points">
              <mxPoint x="370" y="1234" />
              <mxPoint x="370" y="1189" />
            </Array>
          </mxGeometry>
        </mxCell>
        <mxCell id="3dV0_Qt8FGwHEw2YKQJY-57" value="" style="rounded=0;whiteSpace=wrap;html=1;sketch=1;fillColor=#e1d5e7;strokeColor=#9673a6;" parent="3dV0_Qt8FGwHEw2YKQJY-1" vertex="1">
          <mxGeometry x="230" y="1210" width="95" height="30" as="geometry" />
        </mxCell>
        <mxCell id="3dV0_Qt8FGwHEw2YKQJY-59" value="" style="rounded=0;whiteSpace=wrap;html=1;sketch=1;" parent="3dV0_Qt8FGwHEw2YKQJY-1" vertex="1">
          <mxGeometry x="390" y="1189" width="99" height="191" as="geometry" />
        </mxCell>
        <mxCell id="3dV0_Qt8FGwHEw2YKQJY-60" value="PT" style="text;html=1;align=center;verticalAlign=middle;resizable=0;points=[];autosize=1;" parent="3dV0_Qt8FGwHEw2YKQJY-1" vertex="1">
          <mxGeometry x="424.5" y="1169" width="30" height="20" as="geometry" />
        </mxCell>
        <mxCell id="3dV0_Qt8FGwHEw2YKQJY-63" style="edgeStyle=orthogonalEdgeStyle;rounded=0;orthogonalLoop=1;jettySize=auto;html=1;startArrow=none;startFill=0;endArrow=open;endFill=0;entryX=0;entryY=0;entryDx=0;entryDy=0;exitX=1;exitY=0.75;exitDx=0;exitDy=0;" parent="3dV0_Qt8FGwHEw2YKQJY-1" source="3dV0_Qt8FGwHEw2YKQJY-88" target="3dV0_Qt8FGwHEw2YKQJY-64" edge="1">
          <mxGeometry relative="1" as="geometry">
            <mxPoint x="600" y="1380" as="targetPoint" />
            <mxPoint x="520" y="1230" as="sourcePoint" />
            <Array as="points">
              <mxPoint x="540" y="1244" />
              <mxPoint x="540" y="1189" />
            </Array>
          </mxGeometry>
        </mxCell>
        <mxCell id="3dV0_Qt8FGwHEw2YKQJY-64" value="" style="rounded=0;whiteSpace=wrap;html=1;sketch=1;" parent="3dV0_Qt8FGwHEw2YKQJY-1" vertex="1">
          <mxGeometry x="560" y="1189.5" width="90" height="190" as="geometry" />
        </mxCell>
        <mxCell id="3dV0_Qt8FGwHEw2YKQJY-65" value="" style="rounded=0;whiteSpace=wrap;html=1;sketch=1;fillColor=#e1d5e7;strokeColor=#9673a6;" parent="3dV0_Qt8FGwHEw2YKQJY-1" vertex="1">
          <mxGeometry x="560" y="1251.5" width="90" height="30" as="geometry" />
        </mxCell>
        <mxCell id="3dV0_Qt8FGwHEw2YKQJY-69" value="" style="endArrow=open;html=1;endFill=0;" parent="3dV0_Qt8FGwHEw2YKQJY-1" edge="1">
          <mxGeometry width="50" height="50" relative="1" as="geometry">
            <mxPoint x="142.5" y="1189.31" as="sourcePoint" />
            <mxPoint x="227.5" y="1189.31" as="targetPoint" />
          </mxGeometry>
        </mxCell>
        <mxCell id="3dV0_Qt8FGwHEw2YKQJY-70" value="PGD 基地址" style="text;html=1;align=center;verticalAlign=middle;resizable=0;points=[];autosize=1;" parent="3dV0_Qt8FGwHEw2YKQJY-1" vertex="1">
          <mxGeometry x="145" y="1168" width="80" height="20" as="geometry" />
        </mxCell>
        <mxCell id="3dV0_Qt8FGwHEw2YKQJY-72" value="Page" style="text;html=1;align=center;verticalAlign=middle;resizable=0;points=[];autosize=1;" parent="3dV0_Qt8FGwHEw2YKQJY-1" vertex="1">
          <mxGeometry x="580" y="1169.5" width="40" height="20" as="geometry" />
        </mxCell>
        <mxCell id="3dV0_Qt8FGwHEw2YKQJY-73" value="CR3" style="text;html=1;align=center;verticalAlign=middle;resizable=0;points=[];autosize=1;" parent="3dV0_Qt8FGwHEw2YKQJY-1" vertex="1">
          <mxGeometry x="105" y="1179" width="40" height="20" as="geometry" />
        </mxCell>
        <mxCell id="3dV0_Qt8FGwHEw2YKQJY-88" value="" style="rounded=0;whiteSpace=wrap;html=1;sketch=1;fillColor=#e1d5e7;strokeColor=#9673a6;" parent="3dV0_Qt8FGwHEw2YKQJY-1" vertex="1">
          <mxGeometry x="390" y="1220.5" width="99" height="31" as="geometry" />
        </mxCell>
      </root>
    </mxGraphModel>
  </diagram>
  <diagram id="WphCiHql9Te4jL_2n8Zz" name="real_convert">
    <mxGraphModel dx="1789" dy="523" grid="1" gridSize="10" guides="1" tooltips="1" connect="1" arrows="1" fold="1" page="1" pageScale="1" pageWidth="827" pageHeight="1169" math="0" shadow="0">
      <root>
        <mxCell id="AadbikCBKvKZjo3h1ga9-0" />
        <mxCell id="AadbikCBKvKZjo3h1ga9-1" parent="AadbikCBKvKZjo3h1ga9-0" />
        <mxCell id="QWljTG0X8mnE_fhNl1Uf-3" value="" style="rounded=0;whiteSpace=wrap;html=1;sketch=1;fillColor=#dae8fc;strokeColor=#6c8ebf;" vertex="1" parent="AadbikCBKvKZjo3h1ga9-1">
          <mxGeometry x="425.5" y="740" width="347.5" height="40" as="geometry" />
        </mxCell>
        <mxCell id="AadbikCBKvKZjo3h1ga9-2" value="# include &amp;lt;stdio.h&amp;gt;&lt;br&gt;&lt;br&gt;greeting()&amp;nbsp;&lt;br&gt;{&lt;br&gt;&amp;nbsp; &amp;nbsp; printf(&quot;Yeah!\n&quot;)&lt;br&gt;}&lt;br&gt;&lt;br&gt;main() &lt;br&gt;{&lt;br&gt;&amp;nbsp; greeting()&lt;br&gt;}" style="text;html=1;strokeColor=none;fillColor=none;spacing=5;spacingTop=-20;whiteSpace=wrap;overflow=hidden;rounded=0;" vertex="1" parent="AadbikCBKvKZjo3h1ga9-1">
          <mxGeometry x="-50" y="10" width="190" height="160" as="geometry" />
        </mxCell>
        <mxCell id="AadbikCBKvKZjo3h1ga9-6" value="内核空间" style="rounded=0;whiteSpace=wrap;html=1;sketch=1;fillColor=#f5f5f5;strokeColor=#666666;fontColor=#333333;" vertex="1" parent="AadbikCBKvKZjo3h1ga9-1">
          <mxGeometry x="320" width="360" height="48" as="geometry" />
        </mxCell>
        <mxCell id="AadbikCBKvKZjo3h1ga9-7" value="" style="rounded=0;whiteSpace=wrap;html=1;sketch=1;" vertex="1" parent="AadbikCBKvKZjo3h1ga9-1">
          <mxGeometry x="319" y="116" width="126" height="159" as="geometry" />
        </mxCell>
        <mxCell id="AadbikCBKvKZjo3h1ga9-8" value="1G" style="text;html=1;align=center;verticalAlign=middle;resizable=0;points=[];autosize=1;" vertex="1" parent="AadbikCBKvKZjo3h1ga9-1">
          <mxGeometry x="255" y="10" width="30" height="20" as="geometry" />
        </mxCell>
        <mxCell id="AadbikCBKvKZjo3h1ga9-9" value="3G" style="text;html=1;align=center;verticalAlign=middle;resizable=0;points=[];autosize=1;" vertex="1" parent="AadbikCBKvKZjo3h1ga9-1">
          <mxGeometry x="255" y="130" width="30" height="20" as="geometry" />
        </mxCell>
        <mxCell id="AadbikCBKvKZjo3h1ga9-11" value="task" style="text;html=1;align=center;verticalAlign=middle;resizable=0;points=[];autosize=1;" vertex="1" parent="AadbikCBKvKZjo3h1ga9-1">
          <mxGeometry x="309" y="96" width="40" height="20" as="geometry" />
        </mxCell>
        <mxCell id="AadbikCBKvKZjo3h1ga9-12" value="数据和代码" style="rounded=0;whiteSpace=wrap;html=1;sketch=1;" vertex="1" parent="AadbikCBKvKZjo3h1ga9-1">
          <mxGeometry x="319" y="206" width="126" height="69" as="geometry" />
        </mxCell>
        <mxCell id="AadbikCBKvKZjo3h1ga9-13" value="堆栈" style="rounded=0;whiteSpace=wrap;html=1;sketch=1;" vertex="1" parent="AadbikCBKvKZjo3h1ga9-1">
          <mxGeometry x="319" y="116" width="126" height="48" as="geometry" />
        </mxCell>
        <mxCell id="AadbikCBKvKZjo3h1ga9-15" value="" style="rounded=0;whiteSpace=wrap;html=1;sketch=1;" vertex="1" parent="AadbikCBKvKZjo3h1ga9-1">
          <mxGeometry x="554" y="116" width="126" height="160" as="geometry" />
        </mxCell>
        <mxCell id="AadbikCBKvKZjo3h1ga9-16" value="another task" style="text;html=1;align=center;verticalAlign=middle;resizable=0;points=[];autosize=1;" vertex="1" parent="AadbikCBKvKZjo3h1ga9-1">
          <mxGeometry x="550" y="96" width="80" height="20" as="geometry" />
        </mxCell>
        <mxCell id="AadbikCBKvKZjo3h1ga9-17" value="0x00000000" style="text;html=1;align=center;verticalAlign=middle;resizable=0;points=[];autosize=1;" vertex="1" parent="AadbikCBKvKZjo3h1ga9-1">
          <mxGeometry x="686" width="80" height="20" as="geometry" />
        </mxCell>
        <mxCell id="AadbikCBKvKZjo3h1ga9-18" value="0xFFFFFFFF" style="text;html=1;align=center;verticalAlign=middle;resizable=0;points=[];autosize=1;" vertex="1" parent="AadbikCBKvKZjo3h1ga9-1">
          <mxGeometry x="690" y="255" width="90" height="20" as="geometry" />
        </mxCell>
        <mxCell id="AadbikCBKvKZjo3h1ga9-21" value="" style="group;fillColor=#f5f5f5;strokeColor=#666666;fontColor=#333333;" vertex="1" connectable="0" parent="AadbikCBKvKZjo3h1ga9-1">
          <mxGeometry x="120" y="250" width="155" height="20" as="geometry" />
        </mxCell>
        <mxCell id="AadbikCBKvKZjo3h1ga9-19" value="0x08048546" style="text;html=1;align=center;verticalAlign=middle;resizable=0;points=[];autosize=1;" vertex="1" parent="AadbikCBKvKZjo3h1ga9-21">
          <mxGeometry width="80" height="20" as="geometry" />
        </mxCell>
        <mxCell id="AadbikCBKvKZjo3h1ga9-20" value="&amp;lt;greeting&amp;gt;" style="text;html=1;align=center;verticalAlign=middle;resizable=0;points=[];autosize=1;" vertex="1" parent="AadbikCBKvKZjo3h1ga9-21">
          <mxGeometry x="85" width="70" height="20" as="geometry" />
        </mxCell>
        <mxCell id="AadbikCBKvKZjo3h1ga9-23" value="" style="edgeStyle=orthogonalEdgeStyle;rounded=0;orthogonalLoop=1;jettySize=auto;html=1;endArrow=open;endFill=0;entryX=-0.015;entryY=0.48;entryDx=0;entryDy=0;entryPerimeter=0;" edge="1" parent="AadbikCBKvKZjo3h1ga9-1" source="AadbikCBKvKZjo3h1ga9-20">
          <mxGeometry relative="1" as="geometry">
            <mxPoint x="318.1999999999998" y="259.6" as="targetPoint" />
          </mxGeometry>
        </mxCell>
        <mxCell id="iLIJJYTn6MCX4mvVT2l6-1" value="" style="endArrow=none;dashed=1;html=1;dashPattern=1 3;strokeWidth=2;" edge="1" parent="AadbikCBKvKZjo3h1ga9-1" source="iLIJJYTn6MCX4mvVT2l6-0">
          <mxGeometry width="50" height="50" relative="1" as="geometry">
            <mxPoint x="280" y="330" as="sourcePoint" />
            <mxPoint x="710" y="340" as="targetPoint" />
          </mxGeometry>
        </mxCell>
        <mxCell id="yOdvse9e0pFefj41JSRS-2" value="__pa(next-&amp;gt;pgd) -&amp;gt; CR3" style="edgeStyle=orthogonalEdgeStyle;rounded=0;orthogonalLoop=1;jettySize=auto;html=1;endArrow=open;endFill=0;entryX=0.085;entryY=1.08;entryDx=0;entryDy=0;entryPerimeter=0;" edge="1" parent="AadbikCBKvKZjo3h1ga9-1" target="aClJmDsX5iaK9tgww9t1-6">
          <mxGeometry relative="1" as="geometry">
            <mxPoint x="-100" y="502" as="sourcePoint" />
            <mxPoint x="160" y="500" as="targetPoint" />
            <Array as="points">
              <mxPoint x="60" y="502" />
              <mxPoint x="60" y="502" />
            </Array>
          </mxGeometry>
        </mxCell>
        <mxCell id="QWljTG0X8mnE_fhNl1Uf-31" value="" style="edgeStyle=orthogonalEdgeStyle;rounded=0;orthogonalLoop=1;jettySize=auto;html=1;endArrow=open;endFill=0;" edge="1" parent="AadbikCBKvKZjo3h1ga9-1" source="iLIJJYTn6MCX4mvVT2l6-2" target="aClJmDsX5iaK9tgww9t1-4">
          <mxGeometry relative="1" as="geometry" />
        </mxCell>
        <mxCell id="iLIJJYTn6MCX4mvVT2l6-2" value="0x08048546" style="text;html=1;align=center;verticalAlign=middle;resizable=0;points=[];autosize=1;" vertex="1" parent="AadbikCBKvKZjo3h1ga9-1">
          <mxGeometry x="120" y="380" width="80" height="20" as="geometry" />
        </mxCell>
        <mxCell id="iLIJJYTn6MCX4mvVT2l6-3" value="" style="edgeStyle=orthogonalEdgeStyle;rounded=0;orthogonalLoop=1;jettySize=auto;html=1;endArrow=open;endFill=0;exitX=0.508;exitY=1.12;exitDx=0;exitDy=0;exitPerimeter=0;" edge="1" parent="AadbikCBKvKZjo3h1ga9-1" source="AadbikCBKvKZjo3h1ga9-19" target="iLIJJYTn6MCX4mvVT2l6-2">
          <mxGeometry relative="1" as="geometry">
            <mxPoint x="160" y="320" as="sourcePoint" />
            <Array as="points">
              <mxPoint x="160" y="300" />
              <mxPoint x="160" y="300" />
            </Array>
          </mxGeometry>
        </mxCell>
        <mxCell id="iLIJJYTn6MCX4mvVT2l6-4" value="虚拟地址" style="text;html=1;align=center;verticalAlign=middle;resizable=0;points=[];autosize=1;" vertex="1" parent="AadbikCBKvKZjo3h1ga9-1">
          <mxGeometry x="167.5" y="270" width="60" height="20" as="geometry" />
        </mxCell>
        <mxCell id="iLIJJYTn6MCX4mvVT2l6-5" value="线性地址" style="text;html=1;align=center;verticalAlign=middle;resizable=0;points=[];autosize=1;" vertex="1" parent="AadbikCBKvKZjo3h1ga9-1">
          <mxGeometry x="167.5" y="360" width="60" height="20" as="geometry" />
        </mxCell>
        <mxCell id="yOdvse9e0pFefj41JSRS-0" value="" style="endArrow=none;dashed=1;html=1;dashPattern=1 3;strokeWidth=2;" edge="1" parent="AadbikCBKvKZjo3h1ga9-1" source="QWljTG0X8mnE_fhNl1Uf-37">
          <mxGeometry width="50" height="50" relative="1" as="geometry">
            <mxPoint x="-50" y="450" as="sourcePoint" />
            <mxPoint x="720" y="440" as="targetPoint" />
          </mxGeometry>
        </mxCell>
        <mxCell id="aClJmDsX5iaK9tgww9t1-9" value="" style="edgeStyle=orthogonalEdgeStyle;rounded=0;orthogonalLoop=1;jettySize=auto;html=1;endArrow=open;endFill=0;entryX=1;entryY=0;entryDx=0;entryDy=0;exitX=0.255;exitY=1;exitDx=0;exitDy=0;exitPerimeter=0;" edge="1" parent="AadbikCBKvKZjo3h1ga9-1" source="aClJmDsX5iaK9tgww9t1-4" target="aClJmDsX5iaK9tgww9t1-7">
          <mxGeometry relative="1" as="geometry">
            <mxPoint x="10" y="580" as="targetPoint" />
            <Array as="points">
              <mxPoint x="243" y="522" />
            </Array>
          </mxGeometry>
        </mxCell>
        <mxCell id="aClJmDsX5iaK9tgww9t1-4" value="高 10 bit 值为 32" style="text;html=1;align=center;verticalAlign=middle;resizable=0;points=[];autosize=1;sketch=0;shadow=0;fillColor=#fff2cc;strokeColor=#d6b656;" vertex="1" parent="AadbikCBKvKZjo3h1ga9-1">
          <mxGeometry x="217.5" y="380" width="100" height="20" as="geometry" />
        </mxCell>
        <mxCell id="aClJmDsX5iaK9tgww9t1-5" value="" style="rounded=0;whiteSpace=wrap;html=1;sketch=1;" vertex="1" parent="AadbikCBKvKZjo3h1ga9-1">
          <mxGeometry x="100" y="500" width="120" height="160" as="geometry" />
        </mxCell>
        <mxCell id="aClJmDsX5iaK9tgww9t1-6" value="PGD" style="text;html=1;align=center;verticalAlign=middle;resizable=0;points=[];autosize=1;" vertex="1" parent="AadbikCBKvKZjo3h1ga9-1">
          <mxGeometry x="90" y="480" width="40" height="20" as="geometry" />
        </mxCell>
        <mxCell id="QWljTG0X8mnE_fhNl1Uf-0" style="edgeStyle=orthogonalEdgeStyle;rounded=0;orthogonalLoop=1;jettySize=auto;html=1;exitX=1;exitY=0.5;exitDx=0;exitDy=0;endArrow=open;endFill=0;entryX=0;entryY=0;entryDx=0;entryDy=0;" edge="1" parent="AadbikCBKvKZjo3h1ga9-1" source="aClJmDsX5iaK9tgww9t1-7" target="QWljTG0X8mnE_fhNl1Uf-1">
          <mxGeometry relative="1" as="geometry">
            <mxPoint x="310" y="531" as="targetPoint" />
            <Array as="points">
              <mxPoint x="220" y="536" />
              <mxPoint x="265" y="536" />
              <mxPoint x="265" y="494" />
            </Array>
          </mxGeometry>
        </mxCell>
        <mxCell id="aClJmDsX5iaK9tgww9t1-7" value="" style="rounded=0;whiteSpace=wrap;html=1;sketch=1;fillColor=#e1d5e7;strokeColor=#9673a6;" vertex="1" parent="AadbikCBKvKZjo3h1ga9-1">
          <mxGeometry x="100" y="522" width="120" height="18" as="geometry" />
        </mxCell>
        <mxCell id="aClJmDsX5iaK9tgww9t1-10" value="32" style="text;html=1;align=center;verticalAlign=middle;resizable=0;points=[];autosize=1;" vertex="1" parent="AadbikCBKvKZjo3h1ga9-1">
          <mxGeometry x="217.5" y="502" width="30" height="20" as="geometry" />
        </mxCell>
        <mxCell id="QWljTG0X8mnE_fhNl1Uf-16" value="&lt;span style=&quot;font-size: 12px ; background-color: rgb(248 , 249 , 250)&quot;&gt;前 20 bit 加上 12 个 0 作为物理页面地址&lt;/span&gt;" style="edgeStyle=orthogonalEdgeStyle;rounded=0;orthogonalLoop=1;jettySize=auto;html=1;entryX=0;entryY=0;entryDx=0;entryDy=0;endArrow=open;endFill=0;" edge="1" parent="AadbikCBKvKZjo3h1ga9-1" target="QWljTG0X8mnE_fhNl1Uf-6">
          <mxGeometry x="-0.5804" y="10" relative="1" as="geometry">
            <mxPoint x="570" y="740" as="sourcePoint" />
            <Array as="points">
              <mxPoint x="570" y="740" />
              <mxPoint x="570" y="494" />
            </Array>
            <mxPoint as="offset" />
          </mxGeometry>
        </mxCell>
        <mxCell id="QWljTG0X8mnE_fhNl1Uf-6" value="" style="rounded=0;whiteSpace=wrap;html=1;fillColor=#e1d5e7;strokeColor=#9673a6;sketch=1;" vertex="1" parent="AadbikCBKvKZjo3h1ga9-1">
          <mxGeometry x="600" y="494" width="130" height="160" as="geometry" />
        </mxCell>
        <mxCell id="QWljTG0X8mnE_fhNl1Uf-8" value="磁盘上 4k 大小的 page" style="text;html=1;align=center;verticalAlign=middle;resizable=0;points=[];autosize=1;" vertex="1" parent="AadbikCBKvKZjo3h1ga9-1">
          <mxGeometry x="595" y="585" width="140" height="20" as="geometry" />
        </mxCell>
        <mxCell id="QWljTG0X8mnE_fhNl1Uf-32" value="" style="edgeStyle=orthogonalEdgeStyle;rounded=0;orthogonalLoop=1;jettySize=auto;html=1;endArrow=open;endFill=0;entryX=1;entryY=0;entryDx=0;entryDy=0;exitX=0.713;exitY=1;exitDx=0;exitDy=0;exitPerimeter=0;" edge="1" parent="AadbikCBKvKZjo3h1ga9-1" source="QWljTG0X8mnE_fhNl1Uf-9" target="QWljTG0X8mnE_fhNl1Uf-4">
          <mxGeometry relative="1" as="geometry">
            <Array as="points">
              <mxPoint x="433" y="544" />
            </Array>
          </mxGeometry>
        </mxCell>
        <mxCell id="QWljTG0X8mnE_fhNl1Uf-9" value="中间 10 bit 的值对应的下标" style="text;html=1;align=center;verticalAlign=middle;resizable=0;points=[];autosize=1;fillColor=#fff2cc;strokeColor=#d6b656;" vertex="1" parent="AadbikCBKvKZjo3h1ga9-1">
          <mxGeometry x="318.5" y="380" width="160" height="20" as="geometry" />
        </mxCell>
        <mxCell id="QWljTG0X8mnE_fhNl1Uf-11" value="用作标志位&amp;nbsp; &amp;nbsp; &amp;nbsp;&amp;nbsp;" style="rounded=0;whiteSpace=wrap;html=1;sketch=0;fillColor=#d5e8d4;strokeColor=#82b366;" vertex="1" parent="AadbikCBKvKZjo3h1ga9-1">
          <mxGeometry x="653" y="740" width="117" height="40" as="geometry" />
        </mxCell>
        <mxCell id="QWljTG0X8mnE_fhNl1Uf-12" value="0" style="text;html=1;align=center;verticalAlign=middle;resizable=0;points=[];autosize=1;" vertex="1" parent="AadbikCBKvKZjo3h1ga9-1">
          <mxGeometry x="760" y="720" width="20" height="20" as="geometry" />
        </mxCell>
        <mxCell id="QWljTG0X8mnE_fhNl1Uf-13" value="11" style="text;html=1;align=center;verticalAlign=middle;resizable=0;points=[];autosize=1;" vertex="1" parent="AadbikCBKvKZjo3h1ga9-1">
          <mxGeometry x="640" y="720" width="30" height="20" as="geometry" />
        </mxCell>
        <mxCell id="QWljTG0X8mnE_fhNl1Uf-15" value="31" style="text;html=1;align=center;verticalAlign=middle;resizable=0;points=[];autosize=1;" vertex="1" parent="AadbikCBKvKZjo3h1ga9-1">
          <mxGeometry x="425.5" y="720" width="30" height="20" as="geometry" />
        </mxCell>
        <mxCell id="QWljTG0X8mnE_fhNl1Uf-19" value="P" style="rounded=0;whiteSpace=wrap;html=1;sketch=1;fillColor=#f8cecc;strokeColor=#b85450;" vertex="1" parent="AadbikCBKvKZjo3h1ga9-1">
          <mxGeometry x="740" y="740" width="33" height="40" as="geometry" />
        </mxCell>
        <mxCell id="QWljTG0X8mnE_fhNl1Uf-20" value="1" style="text;html=1;align=center;verticalAlign=middle;resizable=0;points=[];autosize=1;" vertex="1" parent="AadbikCBKvKZjo3h1ga9-1">
          <mxGeometry x="733" y="720" width="20" height="20" as="geometry" />
        </mxCell>
        <mxCell id="QWljTG0X8mnE_fhNl1Uf-23" value="P 标志 page 是否在内存中" style="text;html=1;align=center;verticalAlign=middle;resizable=0;points=[];autosize=1;" vertex="1" parent="AadbikCBKvKZjo3h1ga9-1">
          <mxGeometry x="650" y="790" width="160" height="20" as="geometry" />
        </mxCell>
        <mxCell id="QWljTG0X8mnE_fhNl1Uf-29" value="" style="edgeStyle=orthogonalEdgeStyle;rounded=0;orthogonalLoop=1;jettySize=auto;html=1;endArrow=open;endFill=0;entryX=1;entryY=0.25;entryDx=0;entryDy=0;" edge="1" parent="AadbikCBKvKZjo3h1ga9-1" source="QWljTG0X8mnE_fhNl1Uf-26" target="QWljTG0X8mnE_fhNl1Uf-6">
          <mxGeometry relative="1" as="geometry">
            <mxPoint x="856" y="410" as="targetPoint" />
            <Array as="points">
              <mxPoint x="770" y="410" />
              <mxPoint x="770" y="534" />
            </Array>
          </mxGeometry>
        </mxCell>
        <mxCell id="QWljTG0X8mnE_fhNl1Uf-26" value="低 12 位 0x546" style="text;html=1;align=center;verticalAlign=middle;resizable=0;points=[];autosize=1;fillColor=#fff2cc;strokeColor=#d6b656;" vertex="1" parent="AadbikCBKvKZjo3h1ga9-1">
          <mxGeometry x="480" y="380" width="100" height="20" as="geometry" />
        </mxCell>
        <mxCell id="QWljTG0X8mnE_fhNl1Uf-30" value="&amp;nbsp; &amp;nbsp; &amp;nbsp; 实际的物理地址&amp;nbsp; &amp;nbsp;&amp;nbsp;" style="text;html=1;align=center;verticalAlign=middle;resizable=0;points=[];autosize=1;fillColor=#f8cecc;strokeColor=#b85450;" vertex="1" parent="AadbikCBKvKZjo3h1ga9-1">
          <mxGeometry x="600" y="530" width="130" height="20" as="geometry" />
        </mxCell>
        <mxCell id="QWljTG0X8mnE_fhNl1Uf-33" value="" style="group" vertex="1" connectable="0" parent="AadbikCBKvKZjo3h1ga9-1">
          <mxGeometry x="320" y="474" width="125" height="180" as="geometry" />
        </mxCell>
        <mxCell id="QWljTG0X8mnE_fhNl1Uf-1" value="" style="rounded=0;whiteSpace=wrap;html=1;sketch=1;" vertex="1" parent="QWljTG0X8mnE_fhNl1Uf-33">
          <mxGeometry x="-40" y="20" width="125" height="160" as="geometry" />
        </mxCell>
        <mxCell id="QWljTG0X8mnE_fhNl1Uf-2" value="PT" style="text;html=1;align=center;verticalAlign=middle;resizable=0;points=[];autosize=1;" vertex="1" parent="QWljTG0X8mnE_fhNl1Uf-33">
          <mxGeometry width="30" height="20" as="geometry" />
        </mxCell>
        <mxCell id="QWljTG0X8mnE_fhNl1Uf-4" value="目标 page 的地址" style="rounded=0;whiteSpace=wrap;html=1;sketch=1;fillColor=#e1d5e7;strokeColor=#9673a6;" vertex="1" parent="QWljTG0X8mnE_fhNl1Uf-33">
          <mxGeometry x="-40" y="70" width="125" height="26" as="geometry" />
        </mxCell>
        <mxCell id="QWljTG0X8mnE_fhNl1Uf-34" style="edgeStyle=orthogonalEdgeStyle;rounded=0;orthogonalLoop=1;jettySize=auto;html=1;exitX=1;exitY=0.75;exitDx=0;exitDy=0;entryX=0;entryY=0;entryDx=0;entryDy=0;endArrow=open;endFill=0;" edge="1" parent="AadbikCBKvKZjo3h1ga9-1" source="QWljTG0X8mnE_fhNl1Uf-4" target="QWljTG0X8mnE_fhNl1Uf-3">
          <mxGeometry relative="1" as="geometry" />
        </mxCell>
        <mxCell id="QWljTG0X8mnE_fhNl1Uf-35" value="假设前 20 bit 为 0x00740 &lt;br&gt;则页面地址为 0x00740000" style="text;html=1;align=center;verticalAlign=middle;resizable=0;points=[];autosize=1;" vertex="1" parent="AadbikCBKvKZjo3h1ga9-1">
          <mxGeometry x="510" y="464" width="160" height="30" as="geometry" />
        </mxCell>
        <mxCell id="QWljTG0X8mnE_fhNl1Uf-36" value="0x00740546" style="text;html=1;align=center;verticalAlign=middle;resizable=0;points=[];autosize=1;" vertex="1" parent="AadbikCBKvKZjo3h1ga9-1">
          <mxGeometry x="730" y="540" width="80" height="20" as="geometry" />
        </mxCell>
        <mxCell id="QWljTG0X8mnE_fhNl1Uf-41" value="映射" style="edgeStyle=orthogonalEdgeStyle;rounded=0;orthogonalLoop=1;jettySize=auto;html=1;exitX=1;exitY=0.5;exitDx=0;exitDy=0;entryX=0.913;entryY=-0.04;entryDx=0;entryDy=0;entryPerimeter=0;endArrow=open;endFill=0;startArrow=open;startFill=0;" edge="1" parent="AadbikCBKvKZjo3h1ga9-1" source="QWljTG0X8mnE_fhNl1Uf-40" target="QWljTG0X8mnE_fhNl1Uf-36">
          <mxGeometry relative="1" as="geometry">
            <Array as="points">
              <mxPoint x="500" y="261" />
              <mxPoint x="500" y="300" />
              <mxPoint x="803" y="300" />
            </Array>
          </mxGeometry>
        </mxCell>
        <mxCell id="QWljTG0X8mnE_fhNl1Uf-40" value="" style="rounded=0;whiteSpace=wrap;html=1;sketch=1;shadow=0;fillColor=#f8cecc;strokeColor=#b85450;" vertex="1" parent="AadbikCBKvKZjo3h1ga9-1">
          <mxGeometry x="320" y="256" width="125" height="10" as="geometry" />
        </mxCell>
        <mxCell id="CeVLm8veJWc10BaH4Zn2-0" value="将下一个进程的 PGD 的物理地址&lt;br&gt;装载到 CR3 寄存器中" style="text;html=1;align=center;verticalAlign=middle;resizable=0;points=[];autosize=1;" vertex="1" parent="AadbikCBKvKZjo3h1ga9-1">
          <mxGeometry x="-100" y="530" width="190" height="30" as="geometry" />
        </mxCell>
        <mxCell id="QWljTG0X8mnE_fhNl1Uf-37" value="页式转换" style="text;html=1;align=center;verticalAlign=middle;resizable=0;points=[];autosize=1;" vertex="1" parent="AadbikCBKvKZjo3h1ga9-1">
          <mxGeometry x="-60" y="430" width="60" height="20" as="geometry" />
        </mxCell>
        <mxCell id="MooxEuU7AHceu1026Soy-0" value="" style="endArrow=none;dashed=1;html=1;dashPattern=1 3;strokeWidth=2;" edge="1" parent="AadbikCBKvKZjo3h1ga9-1" target="QWljTG0X8mnE_fhNl1Uf-37">
          <mxGeometry width="50" height="50" relative="1" as="geometry">
            <mxPoint x="-50" y="450" as="sourcePoint" />
            <mxPoint x="700" y="450" as="targetPoint" />
          </mxGeometry>
        </mxCell>
        <mxCell id="iLIJJYTn6MCX4mvVT2l6-0" value="段式转换 Linux 不做转换的实际操作" style="text;html=1;align=center;verticalAlign=middle;resizable=0;points=[];autosize=1;" vertex="1" parent="AadbikCBKvKZjo3h1ga9-1">
          <mxGeometry x="-70" y="330" width="210" height="20" as="geometry" />
        </mxCell>
        <mxCell id="MooxEuU7AHceu1026Soy-3" style="edgeStyle=orthogonalEdgeStyle;rounded=0;sketch=0;orthogonalLoop=1;jettySize=auto;html=1;exitX=0.5;exitY=1;exitDx=0;exitDy=0;entryX=0.008;entryY=0.52;entryDx=0;entryDy=0;entryPerimeter=0;dashed=1;startArrow=none;startFill=0;endArrow=open;endFill=0;" edge="1" parent="AadbikCBKvKZjo3h1ga9-1" source="MooxEuU7AHceu1026Soy-2" target="AadbikCBKvKZjo3h1ga9-19">
          <mxGeometry relative="1" as="geometry" />
        </mxCell>
        <mxCell id="MooxEuU7AHceu1026Soy-2" value="" style="rounded=0;whiteSpace=wrap;html=1;sketch=0;shadow=0;fillColor=none;dashed=1;" vertex="1" parent="AadbikCBKvKZjo3h1ga9-1">
          <mxGeometry x="-60" width="230" height="170" as="geometry" />
        </mxCell>
      </root>
    </mxGraphModel>
  </diagram>
  <diagram id="VaNA79MZ19rj9ajzUUqG" name="inheritance">
    <mxGraphModel dx="976" dy="588" grid="1" gridSize="10" guides="1" tooltips="1" connect="1" arrows="1" fold="1" page="1" pageScale="1" pageWidth="827" pageHeight="1169" math="0" shadow="0">
      <root>
        <mxCell id="FlsANeotGxtcneY0_yHU-0" />
        <mxCell id="FlsANeotGxtcneY0_yHU-1" parent="FlsANeotGxtcneY0_yHU-0" />
        <mxCell id="ETdVuz-P9QdGpC38qOC3-0" value="" style="rounded=0;whiteSpace=wrap;html=1;fillColor=#f8cecc;strokeColor=#b85450;sketch=0;" vertex="1" parent="FlsANeotGxtcneY0_yHU-1">
          <mxGeometry x="329" y="770" width="120" height="240" as="geometry" />
        </mxCell>
        <mxCell id="FlsANeotGxtcneY0_yHU-2" value="*next" style="rounded=0;whiteSpace=wrap;html=1;sketch=0;fontSize=12;" vertex="1" parent="FlsANeotGxtcneY0_yHU-1">
          <mxGeometry x="170" y="130" width="100" height="48" as="geometry" />
        </mxCell>
        <mxCell id="FlsANeotGxtcneY0_yHU-8" value="&lt;b&gt;list_head&lt;/b&gt;" style="text;html=1;align=center;verticalAlign=middle;resizable=0;points=[];autosize=1;" vertex="1" parent="FlsANeotGxtcneY0_yHU-1">
          <mxGeometry x="160" y="110" width="70" height="20" as="geometry" />
        </mxCell>
        <mxCell id="FlsANeotGxtcneY0_yHU-10" value="*prev" style="rounded=0;whiteSpace=wrap;html=1;sketch=0;fontSize=12;" vertex="1" parent="FlsANeotGxtcneY0_yHU-1">
          <mxGeometry x="170" y="178" width="100" height="48" as="geometry" />
        </mxCell>
        <mxCell id="FlsANeotGxtcneY0_yHU-11" value="" style="endArrow=none;dashed=1;html=1;strokeWidth=2;" edge="1" parent="FlsANeotGxtcneY0_yHU-1">
          <mxGeometry width="50" height="50" relative="1" as="geometry">
            <mxPoint x="280" y="130" as="sourcePoint" />
            <mxPoint x="430" y="130" as="targetPoint" />
          </mxGeometry>
        </mxCell>
        <mxCell id="FlsANeotGxtcneY0_yHU-12" value="" style="endArrow=none;dashed=1;html=1;strokeWidth=2;" edge="1" parent="FlsANeotGxtcneY0_yHU-1">
          <mxGeometry width="50" height="50" relative="1" as="geometry">
            <mxPoint x="280" y="224" as="sourcePoint" />
            <mxPoint x="430" y="224" as="targetPoint" />
          </mxGeometry>
        </mxCell>
        <mxCell id="FlsANeotGxtcneY0_yHU-13" value="*next" style="rounded=0;whiteSpace=wrap;html=1;sketch=0;fontSize=12;" vertex="1" parent="FlsANeotGxtcneY0_yHU-1">
          <mxGeometry x="440" y="130" width="100" height="48" as="geometry" />
        </mxCell>
        <mxCell id="FlsANeotGxtcneY0_yHU-14" value="&lt;b&gt;CustomStructure&lt;/b&gt;" style="text;html=1;align=center;verticalAlign=middle;resizable=0;points=[];autosize=1;" vertex="1" parent="FlsANeotGxtcneY0_yHU-1">
          <mxGeometry x="430" y="110" width="110" height="20" as="geometry" />
        </mxCell>
        <mxCell id="FlsANeotGxtcneY0_yHU-15" value="*prev" style="rounded=0;whiteSpace=wrap;html=1;sketch=0;fontSize=12;" vertex="1" parent="FlsANeotGxtcneY0_yHU-1">
          <mxGeometry x="440" y="178" width="100" height="48" as="geometry" />
        </mxCell>
        <mxCell id="FlsANeotGxtcneY0_yHU-16" value="extra" style="rounded=0;whiteSpace=wrap;html=1;sketch=0;fontSize=12;" vertex="1" parent="FlsANeotGxtcneY0_yHU-1">
          <mxGeometry x="440" y="224" width="100" height="48" as="geometry" />
        </mxCell>
        <mxCell id="FlsANeotGxtcneY0_yHU-17" value="Pic 1 : Single inheritance" style="text;html=1;align=center;verticalAlign=middle;resizable=0;points=[];autosize=1;fontStyle=1" vertex="1" parent="FlsANeotGxtcneY0_yHU-1">
          <mxGeometry x="280" y="350" width="160" height="20" as="geometry" />
        </mxCell>
        <mxCell id="FlsANeotGxtcneY0_yHU-18" value="*next" style="rounded=0;whiteSpace=wrap;html=1;sketch=0;fontSize=12;fillColor=#fff2cc;strokeColor=#d6b656;" vertex="1" parent="FlsANeotGxtcneY0_yHU-1">
          <mxGeometry x="180" y="420" width="100" height="48" as="geometry" />
        </mxCell>
        <mxCell id="FlsANeotGxtcneY0_yHU-19" value="&lt;b&gt;list_head&lt;/b&gt;" style="text;html=1;align=center;verticalAlign=middle;resizable=0;points=[];autosize=1;" vertex="1" parent="FlsANeotGxtcneY0_yHU-1">
          <mxGeometry x="110" y="400" width="70" height="20" as="geometry" />
        </mxCell>
        <mxCell id="FlsANeotGxtcneY0_yHU-20" value="*prev" style="rounded=0;whiteSpace=wrap;html=1;sketch=0;fontSize=12;fillColor=#fff2cc;strokeColor=#d6b656;" vertex="1" parent="FlsANeotGxtcneY0_yHU-1">
          <mxGeometry x="180" y="468" width="100" height="48" as="geometry" />
        </mxCell>
        <mxCell id="FlsANeotGxtcneY0_yHU-21" value="" style="endArrow=none;dashed=1;html=1;strokeWidth=2;" edge="1" parent="FlsANeotGxtcneY0_yHU-1">
          <mxGeometry width="50" height="50" relative="1" as="geometry">
            <mxPoint x="290" y="420" as="sourcePoint" />
            <mxPoint x="440" y="420" as="targetPoint" />
          </mxGeometry>
        </mxCell>
        <mxCell id="FlsANeotGxtcneY0_yHU-22" value="" style="endArrow=none;dashed=1;html=1;strokeWidth=2;" edge="1" parent="FlsANeotGxtcneY0_yHU-1">
          <mxGeometry width="50" height="50" relative="1" as="geometry">
            <mxPoint x="290" y="514" as="sourcePoint" />
            <mxPoint x="440" y="514" as="targetPoint" />
          </mxGeometry>
        </mxCell>
        <mxCell id="FlsANeotGxtcneY0_yHU-23" value="*next" style="rounded=0;whiteSpace=wrap;html=1;sketch=0;fontSize=12;fillColor=#fff2cc;strokeColor=#d6b656;" vertex="1" parent="FlsANeotGxtcneY0_yHU-1">
          <mxGeometry x="450" y="420" width="100" height="48" as="geometry" />
        </mxCell>
        <mxCell id="FlsANeotGxtcneY0_yHU-24" value="&lt;b&gt;CustomStructure&lt;/b&gt;" style="text;html=1;align=center;verticalAlign=middle;resizable=0;points=[];autosize=1;" vertex="1" parent="FlsANeotGxtcneY0_yHU-1">
          <mxGeometry x="445" y="400" width="110" height="20" as="geometry" />
        </mxCell>
        <mxCell id="FlsANeotGxtcneY0_yHU-25" value="*prev" style="rounded=0;whiteSpace=wrap;html=1;sketch=0;fontSize=12;fillColor=#fff2cc;strokeColor=#d6b656;" vertex="1" parent="FlsANeotGxtcneY0_yHU-1">
          <mxGeometry x="450" y="468" width="100" height="48" as="geometry" />
        </mxCell>
        <mxCell id="FlsANeotGxtcneY0_yHU-26" value="extra" style="rounded=0;whiteSpace=wrap;html=1;sketch=0;fontSize=12;" vertex="1" parent="FlsANeotGxtcneY0_yHU-1">
          <mxGeometry x="450" y="612" width="100" height="48" as="geometry" />
        </mxCell>
        <mxCell id="FlsANeotGxtcneY0_yHU-27" value="Pic 2 : Multi inheritance" style="text;html=1;align=center;verticalAlign=middle;resizable=0;points=[];autosize=1;fontStyle=1" vertex="1" parent="FlsANeotGxtcneY0_yHU-1">
          <mxGeometry x="285" y="700" width="150" height="20" as="geometry" />
        </mxCell>
        <mxCell id="FlsANeotGxtcneY0_yHU-28" value="*next" style="rounded=0;whiteSpace=wrap;html=1;sketch=0;fontSize=12;fillColor=#d5e8d4;strokeColor=#82b366;" vertex="1" parent="FlsANeotGxtcneY0_yHU-1">
          <mxGeometry x="180" y="516" width="100" height="48" as="geometry" />
        </mxCell>
        <mxCell id="FlsANeotGxtcneY0_yHU-29" value="&lt;b&gt;list_head&lt;/b&gt;" style="text;html=1;align=center;verticalAlign=middle;resizable=0;points=[];autosize=1;" vertex="1" parent="FlsANeotGxtcneY0_yHU-1">
          <mxGeometry x="110" y="496" width="70" height="20" as="geometry" />
        </mxCell>
        <mxCell id="FlsANeotGxtcneY0_yHU-30" value="*prev" style="rounded=0;whiteSpace=wrap;html=1;sketch=0;fontSize=12;fillColor=#d5e8d4;strokeColor=#82b366;" vertex="1" parent="FlsANeotGxtcneY0_yHU-1">
          <mxGeometry x="180" y="564" width="100" height="48" as="geometry" />
        </mxCell>
        <mxCell id="FlsANeotGxtcneY0_yHU-31" value="*next" style="rounded=0;whiteSpace=wrap;html=1;sketch=0;fontSize=12;fillColor=#d5e8d4;strokeColor=#82b366;" vertex="1" parent="FlsANeotGxtcneY0_yHU-1">
          <mxGeometry x="450" y="516" width="100" height="48" as="geometry" />
        </mxCell>
        <mxCell id="FlsANeotGxtcneY0_yHU-33" value="*prev" style="rounded=0;whiteSpace=wrap;html=1;sketch=0;fontSize=12;fillColor=#d5e8d4;strokeColor=#82b366;" vertex="1" parent="FlsANeotGxtcneY0_yHU-1">
          <mxGeometry x="450" y="564" width="100" height="48" as="geometry" />
        </mxCell>
        <mxCell id="FlsANeotGxtcneY0_yHU-35" value="" style="endArrow=none;dashed=1;html=1;strokeWidth=2;" edge="1" parent="FlsANeotGxtcneY0_yHU-1">
          <mxGeometry width="50" height="50" relative="1" as="geometry">
            <mxPoint x="285" y="612" as="sourcePoint" />
            <mxPoint x="435" y="612" as="targetPoint" />
          </mxGeometry>
        </mxCell>
        <mxCell id="FlsANeotGxtcneY0_yHU-38" value="" style="edgeStyle=orthogonalEdgeStyle;rounded=0;orthogonalLoop=1;jettySize=auto;html=1;strokeWidth=2;" edge="1" parent="FlsANeotGxtcneY0_yHU-1" source="FlsANeotGxtcneY0_yHU-36" target="FlsANeotGxtcneY0_yHU-37">
          <mxGeometry relative="1" as="geometry" />
        </mxCell>
        <mxCell id="FlsANeotGxtcneY0_yHU-36" value="&lt;b&gt;(list_head*)&amp;amp;custom&lt;/b&gt;" style="text;html=1;align=center;verticalAlign=middle;resizable=0;points=[];autosize=1;" vertex="1" parent="FlsANeotGxtcneY0_yHU-1">
          <mxGeometry x="630" y="110" width="130" height="20" as="geometry" />
        </mxCell>
        <mxCell id="FlsANeotGxtcneY0_yHU-42" value="" style="edgeStyle=orthogonalEdgeStyle;rounded=0;orthogonalLoop=1;jettySize=auto;html=1;strokeWidth=2;" edge="1" parent="FlsANeotGxtcneY0_yHU-1" source="FlsANeotGxtcneY0_yHU-37" target="ETdVuz-P9QdGpC38qOC3-19">
          <mxGeometry relative="1" as="geometry">
            <mxPoint x="695" y="930" as="targetPoint" />
          </mxGeometry>
        </mxCell>
        <mxCell id="FlsANeotGxtcneY0_yHU-37" value="&lt;b&gt;(list_head*)(&amp;amp;custom.list_2)&lt;/b&gt;" style="text;html=1;align=center;verticalAlign=middle;resizable=0;points=[];autosize=1;" vertex="1" parent="FlsANeotGxtcneY0_yHU-1">
          <mxGeometry x="610" y="380" width="170" height="20" as="geometry" />
        </mxCell>
        <mxCell id="FlsANeotGxtcneY0_yHU-39" value="list_1" style="text;html=1;align=center;verticalAlign=middle;resizable=0;points=[];autosize=1;" vertex="1" parent="FlsANeotGxtcneY0_yHU-1">
          <mxGeometry x="550" y="420" width="40" height="20" as="geometry" />
        </mxCell>
        <mxCell id="FlsANeotGxtcneY0_yHU-40" value="list_2" style="text;html=1;align=center;verticalAlign=middle;resizable=0;points=[];autosize=1;" vertex="1" parent="FlsANeotGxtcneY0_yHU-1">
          <mxGeometry x="550" y="516" width="40" height="20" as="geometry" />
        </mxCell>
        <mxCell id="ETdVuz-P9QdGpC38qOC3-1" value="" style="group;sketch=0;fillColor=#ffffff;" vertex="1" connectable="0" parent="FlsANeotGxtcneY0_yHU-1">
          <mxGeometry x="329" y="830" width="120" height="120" as="geometry" />
        </mxCell>
        <mxCell id="ETdVuz-P9QdGpC38qOC3-2" value="list_head *list1" style="rounded=0;whiteSpace=wrap;html=1;fillColor=#dae8fc;strokeColor=#6c8ebf;sketch=0;" vertex="1" parent="ETdVuz-P9QdGpC38qOC3-1">
          <mxGeometry width="120" height="60" as="geometry" />
        </mxCell>
        <mxCell id="ETdVuz-P9QdGpC38qOC3-3" value="list_head *list2" style="rounded=0;whiteSpace=wrap;html=1;fillColor=#dae8fc;strokeColor=#6c8ebf;sketch=0;" vertex="1" parent="ETdVuz-P9QdGpC38qOC3-1">
          <mxGeometry y="60" width="120" height="60" as="geometry" />
        </mxCell>
        <mxCell id="ETdVuz-P9QdGpC38qOC3-5" value="&lt;span&gt;```&lt;/span&gt;" style="rounded=0;whiteSpace=wrap;html=1;fillColor=#f8cecc;strokeColor=#b85450;sketch=0;" vertex="1" parent="FlsANeotGxtcneY0_yHU-1">
          <mxGeometry x="329" y="950" width="120" height="60" as="geometry" />
        </mxCell>
        <mxCell id="ETdVuz-P9QdGpC38qOC3-6" value="" style="endArrow=open;html=1;endFill=0;exitX=1;exitY=0.5;exitDx=0;exitDy=0;sketch=0;" edge="1" parent="FlsANeotGxtcneY0_yHU-1" source="ETdVuz-P9QdGpC38qOC3-12">
          <mxGeometry width="50" height="50" relative="1" as="geometry">
            <mxPoint x="249" y="829.31" as="sourcePoint" />
            <mxPoint x="329" y="829" as="targetPoint" />
          </mxGeometry>
        </mxCell>
        <mxCell id="ETdVuz-P9QdGpC38qOC3-7" value="0x200" style="text;html=1;align=center;verticalAlign=middle;resizable=0;points=[];autosize=1;sketch=0;" vertex="1" parent="FlsANeotGxtcneY0_yHU-1">
          <mxGeometry x="249" y="830" width="50" height="20" as="geometry" />
        </mxCell>
        <mxCell id="ETdVuz-P9QdGpC38qOC3-8" value="&lt;span style=&quot;color: rgba(0 , 0 , 0 , 0) ; font-family: monospace ; font-size: 0px&quot;&gt;%3CmxGraphModel%3E%3Croot%3E%3CmxCell%20id%3D%220%22%2F%3E%3CmxCell%20id%3D%221%22%20parent%3D%220%22%2F%3E%3CmxCell%20id%3D%222%22%20value%3D%22%26lt%3Bb%26gt%3BCustomStructure%26lt%3B%2Fb%26gt%3B%22%20style%3D%22text%3Bhtml%3D1%3Balign%3Dcenter%3BverticalAlign%3Dmiddle%3Bresizable%3D0%3Bpoints%3D%5B%5D%3Bautosize%3D1%3B%22%20vertex%3D%221%22%20parent%3D%221%22%3E%3CmxGeometry%20x%3D%22445%22%20y%3D%22400%22%20width%3D%22110%22%20height%3D%2220%22%20as%3D%22geometry%22%2F%3E%3C%2FmxCell%3E%3C%2Froot%3E%3C%2FmxGraphModel%3E&lt;/span&gt;" style="text;html=1;align=center;verticalAlign=middle;resizable=0;points=[];autosize=1;sketch=0;" vertex="1" parent="FlsANeotGxtcneY0_yHU-1">
          <mxGeometry x="369" y="750" width="20" height="20" as="geometry" />
        </mxCell>
        <mxCell id="ETdVuz-P9QdGpC38qOC3-9" value="" style="endArrow=open;html=1;endFill=0;sketch=0;" edge="1" parent="FlsANeotGxtcneY0_yHU-1">
          <mxGeometry width="50" height="50" relative="1" as="geometry">
            <mxPoint x="229" y="770" as="sourcePoint" />
            <mxPoint x="329" y="770" as="targetPoint" />
          </mxGeometry>
        </mxCell>
        <mxCell id="ETdVuz-P9QdGpC38qOC3-11" value="" style="group;sketch=0;" vertex="1" connectable="0" parent="FlsANeotGxtcneY0_yHU-1">
          <mxGeometry x="109" y="800" width="120" height="120" as="geometry" />
        </mxCell>
        <mxCell id="ETdVuz-P9QdGpC38qOC3-12" value="*next" style="rounded=0;whiteSpace=wrap;html=1;fillColor=#dae8fc;strokeColor=#6c8ebf;sketch=0;" vertex="1" parent="ETdVuz-P9QdGpC38qOC3-11">
          <mxGeometry width="120" height="60" as="geometry" />
        </mxCell>
        <mxCell id="ETdVuz-P9QdGpC38qOC3-13" value="*prev" style="rounded=0;whiteSpace=wrap;html=1;fillColor=#dae8fc;strokeColor=#6c8ebf;sketch=0;" vertex="1" parent="ETdVuz-P9QdGpC38qOC3-11">
          <mxGeometry y="60" width="120" height="60" as="geometry" />
        </mxCell>
        <mxCell id="ETdVuz-P9QdGpC38qOC3-15" value="(unsigned long)(&amp;amp;((struct Structure*)0)-&amp;gt;list)" style="text;html=1;align=center;verticalAlign=middle;resizable=0;points=[];autosize=1;sketch=0;" vertex="1" parent="FlsANeotGxtcneY0_yHU-1">
          <mxGeometry x="479" y="800" width="250" height="20" as="geometry" />
        </mxCell>
        <mxCell id="ETdVuz-P9QdGpC38qOC3-16" value="" style="endArrow=open;startArrow=open;html=1;endFill=0;startFill=0;sketch=0;" edge="1" parent="FlsANeotGxtcneY0_yHU-1">
          <mxGeometry width="50" height="50" relative="1" as="geometry">
            <mxPoint x="479" y="830" as="sourcePoint" />
            <mxPoint x="479" y="770" as="targetPoint" />
          </mxGeometry>
        </mxCell>
        <mxCell id="ETdVuz-P9QdGpC38qOC3-17" value="" style="endArrow=none;dashed=1;html=1;dashPattern=1 3;strokeWidth=2;sketch=0;" edge="1" parent="FlsANeotGxtcneY0_yHU-1">
          <mxGeometry width="50" height="50" relative="1" as="geometry">
            <mxPoint x="449" y="770" as="sourcePoint" />
            <mxPoint x="529" y="770" as="targetPoint" />
          </mxGeometry>
        </mxCell>
        <mxCell id="ETdVuz-P9QdGpC38qOC3-18" value="" style="endArrow=none;dashed=1;html=1;dashPattern=1 3;strokeWidth=2;sketch=0;" edge="1" parent="FlsANeotGxtcneY0_yHU-1">
          <mxGeometry width="50" height="50" relative="1" as="geometry">
            <mxPoint x="449" y="830" as="sourcePoint" />
            <mxPoint x="529" y="830" as="targetPoint" />
          </mxGeometry>
        </mxCell>
        <mxCell id="ETdVuz-P9QdGpC38qOC3-19" value="&lt;br&gt;&lt;br&gt;&lt;div style=&quot;font-family: &amp;#34;consolas&amp;#34; , &amp;#34;courier new&amp;#34; , monospace ; font-size: 14px ; font-style: normal ; letter-spacing: normal ; text-align: center ; text-indent: 0px ; text-transform: none ; word-spacing: 0px&quot;&gt;&lt;span&gt;&amp;nbsp;(&lt;/span&gt;&lt;span&gt;list_head&lt;/span&gt;*&lt;span&gt;)&amp;nbsp;(&amp;nbsp;((char&lt;/span&gt;*&lt;span&gt;)customName) \ +&lt;/span&gt;&lt;span&gt;&amp;nbsp;&lt;/span&gt;&lt;span&gt;offsetof&lt;/span&gt;&lt;span&gt;(customStructure&lt;/span&gt;&lt;span&gt;, list1)&amp;nbsp;)&amp;nbsp;&lt;/span&gt;&lt;/div&gt;" style="text;html=1;strokeColor=none;fillColor=none;align=center;verticalAlign=middle;whiteSpace=wrap;rounded=0;fontStyle=1;sketch=0;" vertex="1" parent="FlsANeotGxtcneY0_yHU-1">
          <mxGeometry x="547.5" y="720" width="295" height="20" as="geometry" />
        </mxCell>
        <mxCell id="ETdVuz-P9QdGpC38qOC3-20" value="&lt;span&gt;```&lt;/span&gt;" style="text;html=1;align=center;verticalAlign=middle;resizable=0;points=[];autosize=1;fontColor=#000000;" vertex="1" parent="FlsANeotGxtcneY0_yHU-1">
          <mxGeometry x="374" y="790" width="30" height="20" as="geometry" />
        </mxCell>
        <mxCell id="ETdVuz-P9QdGpC38qOC3-21" value="&lt;b&gt;CustomStructure&lt;/b&gt;" style="text;html=1;align=center;verticalAlign=middle;resizable=0;points=[];autosize=1;" vertex="1" parent="FlsANeotGxtcneY0_yHU-1">
          <mxGeometry x="354" y="750" width="110" height="20" as="geometry" />
        </mxCell>
        <mxCell id="ETdVuz-P9QdGpC38qOC3-22" value="&lt;b&gt;list_head&lt;/b&gt;" style="text;html=1;align=center;verticalAlign=middle;resizable=0;points=[];autosize=1;" vertex="1" parent="FlsANeotGxtcneY0_yHU-1">
          <mxGeometry x="99" y="780" width="70" height="20" as="geometry" />
        </mxCell>
        <mxCell id="ETdVuz-P9QdGpC38qOC3-23" value="offsetof() =&amp;nbsp;" style="text;html=1;align=center;verticalAlign=middle;resizable=0;points=[];autosize=1;fontColor=#000000;fontStyle=1" vertex="1" parent="FlsANeotGxtcneY0_yHU-1">
          <mxGeometry x="479" y="780" width="80" height="20" as="geometry" />
        </mxCell>
        <mxCell id="ETdVuz-P9QdGpC38qOC3-24" value="Pic 3 : Usage" style="text;html=1;align=center;verticalAlign=middle;resizable=0;points=[];autosize=1;fontStyle=1" vertex="1" parent="FlsANeotGxtcneY0_yHU-1">
          <mxGeometry x="315" y="1060" width="90" height="20" as="geometry" />
        </mxCell>
      </root>
    </mxGraphModel>
  </diagram>
</mxfile>
